<svg width="30" height="30" viewBox="0 0 30 30" fill="none" xmlns="http://www.w3.org/2000/svg">
<path d="M10.826 24.5427C19.317 24.5427 23.9604 17.5057 23.9604 11.4034C23.9604 11.2036 23.9563 11.0046 23.9473 10.8065C24.8508 10.1525 25.6306 9.34276 26.25 8.41521C25.4229 8.78308 24.5328 9.03067 23.599 9.1423C24.5521 8.57061 25.2838 7.66617 25.629 6.58809C24.7228 7.12585 23.7315 7.50494 22.6977 7.70902C21.8553 6.8114 20.6561 6.25 19.3281 6.25C16.7788 6.25 14.7116 8.31808 14.7116 10.8673C14.7116 11.2297 14.7521 11.5821 14.8313 11.9203C10.9947 11.7271 7.59261 9.88956 5.31576 7.0954C4.90568 7.80014 4.68998 8.60109 4.6907 9.41646C4.6907 11.0186 5.50564 12.433 6.74497 13.2604C6.01189 13.238 5.29491 13.04 4.6543 12.6828C4.65361 12.7022 4.65361 12.7211 4.65361 12.7418C4.65361 14.9783 6.2448 16.8455 8.35706 17.2686C7.96035 17.3767 7.55099 17.4314 7.13982 17.4311C6.84288 17.4311 6.55349 17.4019 6.27224 17.3479C6.85994 19.1827 8.56409 20.518 10.5846 20.5553C9.00457 21.7941 7.01428 22.532 4.85113 22.532C4.48315 22.5323 4.11547 22.5109 3.75 22.468C5.79302 23.778 8.21867 24.5427 10.826 24.5427Z" fill="#1D9BF0"/>
</svg>
