<svg width="30" height="30" viewBox="0 0 30 30" fill="none" xmlns="http://www.w3.org/2000/svg">
<path d="M15.4985 23.0437L10.8823 22.9593C9.38775 22.9298 7.88943 22.9886 6.42413 22.6838C4.19508 22.2284 4.03717 19.9956 3.87193 18.1228C3.64424 15.4897 3.73239 12.8089 4.16206 10.1979C4.40462 8.73282 5.3592 7.85861 6.83543 7.76347C11.8188 7.41823 16.8353 7.45914 21.8076 7.62021C22.3327 7.63498 22.8615 7.71568 23.3793 7.80755C25.9353 8.25559 25.9976 10.7858 26.1633 12.9158C26.3286 15.0677 26.2588 17.2307 25.943 19.368C25.6896 21.1377 25.2048 22.6217 23.1589 22.7649C20.5956 22.9523 18.091 23.1031 15.5205 23.0551C15.5206 23.0437 15.5058 23.0437 15.4985 23.0437ZM12.7846 18.5635C14.7163 17.4544 16.6112 16.3637 18.5319 15.2621C16.5965 14.1529 14.7053 13.0623 12.7846 11.9606V18.5635Z" fill="#FF0000"/>
</svg>
