<svg width="30" height="30" viewBox="0 0 30 30" fill="none" xmlns="http://www.w3.org/2000/svg">
<path d="M4.58984 13.5875C4.58984 10.4372 4.58984 8.86208 5.20293 7.65883C5.74222 6.60042 6.60274 5.7399 7.66115 5.20061C8.8644 4.58752 10.4395 4.58752 13.5898 4.58752H16.4273C19.5776 4.58752 21.1528 4.58752 22.356 5.20061C23.4145 5.7399 24.275 6.60042 24.8143 7.65883C25.4273 8.86208 25.4273 10.4372 25.4273 13.5875V16.425C25.4273 19.5753 25.4273 21.1505 24.8143 22.3537C24.275 23.4121 23.4145 24.2726 22.356 24.8119C21.1528 25.425 19.5776 25.425 16.4273 25.425H13.5898C10.4395 25.425 8.8644 25.425 7.66115 24.8119C6.60274 24.2726 5.74222 23.4121 5.20293 22.3537C4.58984 21.1505 4.58984 19.5753 4.58984 16.425V13.5875Z" fill="url(#paint0_radial_216_1962)"/>
<path d="M4.58984 13.5875C4.58984 10.4372 4.58984 8.86208 5.20293 7.65883C5.74222 6.60042 6.60274 5.7399 7.66115 5.20061C8.8644 4.58752 10.4395 4.58752 13.5898 4.58752H16.4273C19.5776 4.58752 21.1528 4.58752 22.356 5.20061C23.4145 5.7399 24.275 6.60042 24.8143 7.65883C25.4273 8.86208 25.4273 10.4372 25.4273 13.5875V16.425C25.4273 19.5753 25.4273 21.1505 24.8143 22.3537C24.275 23.4121 23.4145 24.2726 22.356 24.8119C21.1528 25.425 19.5776 25.425 16.4273 25.425H13.5898C10.4395 25.425 8.8644 25.425 7.66115 24.8119C6.60274 24.2726 5.74222 23.4121 5.20293 22.3537C4.58984 21.1505 4.58984 19.5753 4.58984 16.425V13.5875Z" fill="url(#paint1_radial_216_1962)"/>
<path d="M15.0011 7.70813C13.0208 7.70813 12.7722 7.71679 11.9945 7.75218C11.2182 7.78773 10.6883 7.91063 10.2247 8.09094C9.74511 8.27718 9.33829 8.52632 8.93299 8.93176C8.52739 9.33706 8.27826 9.74387 8.0914 10.2233C7.91063 10.6871 7.78758 11.2171 7.75264 11.993C7.71785 12.7708 7.70874 13.0195 7.70874 14.9998C7.70874 16.9801 7.71755 17.2279 7.75279 18.0056C7.78849 18.7819 7.91139 19.3118 8.09156 19.7754C8.27795 20.255 8.52709 20.6618 8.93254 21.0671C9.33769 21.4727 9.7445 21.7224 10.2238 21.9087C10.6877 22.089 11.2177 22.2119 11.9939 22.2474C12.7716 22.2828 13.02 22.2915 15.0002 22.2915C16.9806 22.2915 17.2284 22.2828 18.0062 22.2474C18.7825 22.2119 19.3129 22.089 19.7769 21.9087C20.2563 21.7224 20.6625 21.4727 21.0677 21.0671C21.4733 20.6618 21.7224 20.255 21.9093 19.7755C22.0885 19.3118 22.2116 18.7817 22.248 18.0058C22.283 17.228 22.2921 16.9801 22.2921 14.9998C22.2921 13.0195 22.283 12.771 22.248 11.9932C22.2116 11.2169 22.0885 10.6871 21.9093 10.2235C21.7224 9.74387 21.4733 9.33706 21.0677 8.93176C20.6621 8.52616 20.2565 8.27703 19.7764 8.09094C19.3116 7.91063 18.7814 7.78773 18.0051 7.75218C17.2274 7.71679 16.9797 7.70813 14.9988 7.70813H15.0011ZM14.347 9.02215C14.5411 9.02185 14.7577 9.02215 15.0011 9.02215C16.948 9.02215 17.1787 9.02914 17.9476 9.06408C18.6585 9.09659 19.0444 9.21538 19.3014 9.31518C19.6417 9.44734 19.8843 9.60533 20.1393 9.86054C20.3946 10.1157 20.5525 10.3588 20.685 10.6991C20.7848 10.9558 20.9038 11.3417 20.9361 12.0526C20.9711 12.8213 20.9787 13.0522 20.9787 14.9981C20.9787 16.9441 20.9711 17.175 20.9361 17.9437C20.9036 18.6546 20.7848 19.0404 20.685 19.2972C20.5528 19.6375 20.3946 19.8797 20.1393 20.1348C19.8841 20.39 19.6418 20.548 19.3014 20.6802C19.0447 20.7804 18.6585 20.8989 17.9476 20.9314C17.1789 20.9664 16.948 20.974 15.0011 20.974C13.054 20.974 12.8233 20.9664 12.0546 20.9314C11.3437 20.8986 10.9578 20.7798 10.7006 20.68C10.3604 20.5478 10.1173 20.3899 9.86208 20.1347C9.60687 19.8794 9.44888 19.637 9.31642 19.2966C9.21661 19.0398 9.09767 18.654 9.06531 17.943C9.03037 17.1744 9.02338 16.9435 9.02338 14.9963C9.02338 13.0491 9.03037 12.8194 9.06531 12.0508C9.09782 11.3398 9.21661 10.954 9.31642 10.697C9.44858 10.3567 9.60687 10.1136 9.86208 9.85841C10.1173 9.6032 10.3604 9.44522 10.7006 9.31275C10.9577 9.21249 11.3437 9.094 12.0546 9.06134C12.7273 9.03096 12.988 9.02185 14.347 9.02033V9.02215ZM18.8934 10.2329C18.4103 10.2329 18.0184 10.6243 18.0184 11.1076C18.0184 11.5906 18.4103 11.9826 18.8934 11.9826C19.3764 11.9826 19.7684 11.5906 19.7684 11.1076C19.7684 10.6245 19.3764 10.2326 18.8934 10.2326V10.2329ZM15.0011 11.2552C12.9331 11.2552 11.2565 12.9318 11.2565 14.9998C11.2565 17.0677 12.9331 18.7436 15.0011 18.7436C17.0691 18.7436 18.7451 17.0677 18.7451 14.9998C18.7451 12.9318 17.0689 11.2552 15.0009 11.2552H15.0011ZM15.0011 12.5692C16.3434 12.5692 17.4317 13.6574 17.4317 14.9998C17.4317 16.3421 16.3434 17.4304 15.0011 17.4304C13.6587 17.4304 12.5705 16.3421 12.5705 14.9998C12.5705 13.6574 13.6587 12.5692 15.0011 12.5692Z" fill="white"/>
<defs>
<radialGradient id="paint0_radial_216_1962" cx="0" cy="0" r="1" gradientUnits="userSpaceOnUse" gradientTransform="translate(10.1248 27.0299) rotate(-90) scale(20.6515 19.2075)">
<stop stop-color="#FFDD55"/>
<stop offset="0.1" stop-color="#FFDD55"/>
<stop offset="0.5" stop-color="#FF543E"/>
<stop offset="1" stop-color="#C837AB"/>
</radialGradient>
<radialGradient id="paint1_radial_216_1962" cx="0" cy="0" r="1" gradientUnits="userSpaceOnUse" gradientTransform="translate(1.09945 6.08862) rotate(78.6806) scale(9.23131 38.0518)">
<stop stop-color="#3771C8"/>
<stop offset="0.128" stop-color="#3771C8"/>
<stop offset="1" stop-color="#6600FF" stop-opacity="0"/>
</radialGradient>
</defs>
</svg>
