<svg width="30" height="30" viewBox="0 0 30 30" fill="none" xmlns="http://www.w3.org/2000/svg">
<g filter="url(#filter0_d_216_1963)">
<path d="M22.9714 7.02139C20.8551 4.91285 18.0401 3.75112 15.0447 3.75C8.86878 3.75 3.84217 8.7531 3.83937 14.9034C3.83881 16.7831 4.31535 18.6354 5.21908 20.275L3.76985 25.5444C3.71715 25.737 3.77097 25.9424 3.91225 26.0842C4.01877 26.1914 4.16285 26.25 4.31086 26.25C4.35851 26.25 4.40617 26.2439 4.45326 26.2316L9.88408 24.8136C11.4695 25.6331 13.2467 26.0658 15.0402 26.0663C21.2206 26.0663 26.2472 21.0627 26.25 14.9124C26.2511 11.9318 25.0867 9.12937 22.9714 7.02139Z" fill="white"/>
</g>
<g filter="url(#filter1_i_216_1963)">
<path d="M21.3017 8.67985C19.631 7.01512 17.4103 6.09791 15.0467 6.09735C10.167 6.09735 6.19829 10.0476 6.19605 14.9033C6.19548 16.5675 6.66305 18.1875 7.54885 19.5904L7.75964 19.9237L6.86544 23.1733L10.2141 22.2991L10.5376 22.49C11.8954 23.2928 13.4528 23.7171 15.0405 23.7176H15.0439C19.9203 23.7176 23.889 19.7668 23.8906 14.9106C23.8912 12.5575 22.9723 10.3446 21.3017 8.67985Z" fill="url(#paint0_linear_216_1963)"/>
</g>
<path fill-rule="evenodd" clip-rule="evenodd" d="M12.4253 10.3547C12.2263 9.91365 12.0166 9.90471 11.8265 9.8969C11.6712 9.8902 11.4941 9.89076 11.3169 9.89076C11.1398 9.89076 10.8516 9.95719 10.6077 10.2224C10.3638 10.4875 9.67651 11.1279 9.67651 12.4308C9.67651 13.7338 10.6296 14.9932 10.7625 15.1696C10.8953 15.346 12.6024 18.1055 15.3058 19.1673C17.5522 20.0494 18.0097 19.8741 18.4975 19.83C18.9852 19.7859 20.0712 19.1896 20.2926 18.5711C20.5141 17.9525 20.5141 17.4228 20.4479 17.3122C20.3812 17.2017 20.204 17.1358 19.9383 17.003C19.6725 16.8701 18.3646 16.2298 18.1207 16.1416C17.8769 16.0534 17.6997 16.0093 17.522 16.2744C17.3448 16.539 16.8352 17.1358 16.6799 17.3122C16.5246 17.4892 16.3693 17.5115 16.1036 17.3787C15.8378 17.2458 14.9812 16.9667 13.9648 16.0645C13.1743 15.3628 12.6406 14.4958 12.4853 14.2306C12.33 13.966 12.4685 13.8226 12.6019 13.6903C12.7213 13.5713 12.8676 13.381 13.0011 13.2263C13.1339 13.0717 13.1782 12.9612 13.2668 12.7848C13.3554 12.6078 13.3111 12.4532 13.2444 12.3209C13.1788 12.188 12.6619 10.8783 12.4253 10.3547Z" fill="white"/>
<defs>
<filter id="filter0_d_216_1963" x="2" y="3.25" width="26" height="26" filterUnits="userSpaceOnUse" color-interpolation-filters="sRGB">
<feFlood flood-opacity="0" result="BackgroundImageFix"/>
<feColorMatrix in="SourceAlpha" type="matrix" values="0 0 0 0 0 0 0 0 0 0 0 0 0 0 0 0 0 0 127 0" result="hardAlpha"/>
<feOffset dy="1.25"/>
<feGaussianBlur stdDeviation="0.875"/>
<feColorMatrix type="matrix" values="0 0 0 0 0.562353 0 0 0 0 0.609412 0 0 0 0 0.717647 0 0 0 0.24 0"/>
<feBlend mode="normal" in2="BackgroundImageFix" result="effect1_dropShadow_216_1963"/>
<feBlend mode="normal" in="SourceGraphic" in2="effect1_dropShadow_216_1963" result="shape"/>
</filter>
<filter id="filter1_i_216_1963" x="6.19604" y="6.09735" width="17.6946" height="17.8702" filterUnits="userSpaceOnUse" color-interpolation-filters="sRGB">
<feFlood flood-opacity="0" result="BackgroundImageFix"/>
<feBlend mode="normal" in="SourceGraphic" in2="BackgroundImageFix" result="shape"/>
<feColorMatrix in="SourceAlpha" type="matrix" values="0 0 0 0 0 0 0 0 0 0 0 0 0 0 0 0 0 0 127 0" result="hardAlpha"/>
<feOffset dy="0.25"/>
<feGaussianBlur stdDeviation="0.125"/>
<feComposite in2="hardAlpha" operator="arithmetic" k2="-1" k3="1"/>
<feColorMatrix type="matrix" values="0 0 0 0 0.263875 0 0 0 0 0.604167 0 0 0 0 0.206424 0 0 0 0.3 0"/>
<feBlend mode="normal" in2="shape" result="effect1_innerShadow_216_1963"/>
</filter>
<linearGradient id="paint0_linear_216_1963" x1="15.0433" y1="6.09735" x2="15.0433" y2="23.7176" gradientUnits="userSpaceOnUse">
<stop stop-color="#7FCE76"/>
<stop offset="1" stop-color="#58B04E"/>
</linearGradient>
</defs>
</svg>
