<svg width="1280" height="431" viewBox="0 0 1280 431" fill="none" xmlns="http://www.w3.org/2000/svg">
<path d="M0 60C0 31.7157 0 17.5736 8.7868 8.7868C17.5736 0 31.7157 0 60 0H1220C1248.28 0 1262.43 0 1271.21 8.7868C1280 17.5736 1280 31.7157 1280 60V371C1280 399.284 1280 413.426 1271.21 422.213C1262.43 431 1248.28 431 1220 431H444.331C425.711 431 416.401 431 409.014 426.281C401.628 421.563 397.715 413.115 389.888 396.22L359.112 329.78C351.285 312.885 347.372 304.437 339.986 299.719C332.599 295 323.289 295 304.669 295H60C31.7157 295 17.5736 295 8.7868 286.213C0 277.426 0 263.284 0 235V60Z" fill="black"/>
</svg>
